<svg width="24" height="24" viewBox="0 0 24 24" fill="none" xmlns="http://www.w3.org/2000/svg">
<rect width="24" height="24" rx="4" fill="url(#paint0_linear_1048_2046)"/>
<path d="M9.74493 14.0476L14.0268 6.31286C14.0857 6.20634 14.1446 6.10122 14.1978 5.99119C14.2462 5.89168 14.2868 5.79146 14.3134 5.68284C14.3695 5.45438 14.3541 5.21611 14.2672 4.99816C14.1823 4.78373 14.0298 4.60287 13.8327 4.48307C13.639 4.36562 13.4111 4.3179 13.1866 4.34782C12.9623 4.37795 12.757 4.48377 12.5951 4.64916C12.518 4.72625 12.4549 4.81385 12.3968 4.90705C12.3323 5.00937 12.2741 5.11589 12.2153 5.22241L11.9447 5.71087L11.6735 5.22171C11.6147 5.11589 11.5565 5.00937 11.492 4.90705C11.4354 4.81399 11.3689 4.7273 11.2937 4.64846C11.1358 4.48484 10.9275 4.37897 10.7022 4.34782C10.478 4.31812 10.2503 4.36583 10.0568 4.48307C9.85976 4.60291 9.70721 4.78376 9.62229 4.99816C9.53504 5.21579 9.51885 5.45545 9.57604 5.68284C9.60267 5.79146 9.64332 5.89168 9.69097 5.99119C9.74423 6.10122 9.8031 6.20634 9.86197 6.31286L10.7366 7.89246L7.32927 14.0469H4.99351C4.87647 14.0469 4.75874 14.0469 4.64171 14.0539C4.53518 14.0602 4.43147 14.0735 4.32775 14.1037C4.1105 14.1667 3.91988 14.2999 3.78253 14.4877C3.64531 14.6767 3.57135 14.9043 3.57123 15.1379C3.5711 15.3715 3.64481 15.5992 3.78182 15.7884C3.91988 15.9762 4.1098 16.1086 4.32775 16.1724C4.43147 16.2025 4.53518 16.2159 4.64171 16.2222C4.75874 16.2292 4.87647 16.2292 4.99421 16.2292H14.1726C14.2006 16.1679 14.2241 16.1047 14.2427 16.04C14.5335 15.0476 13.811 14.0469 12.8165 14.0469L9.74493 14.0476ZM5.75318 16.5859L5.19814 17.6371C5.14068 17.7464 5.08251 17.8543 5.03065 17.9672C4.98262 18.0687 4.94505 18.1748 4.91852 18.2839C4.86229 18.5174 4.87792 18.7624 4.96337 18.9868C5.04817 19.2097 5.19744 19.3954 5.38876 19.5159C5.57938 19.6365 5.80153 19.6855 6.02018 19.654C6.24023 19.6232 6.44066 19.5152 6.59904 19.3456C6.67473 19.265 6.7364 19.176 6.79386 19.0807C6.85694 18.9756 6.9137 18.8663 6.97117 18.757L7.77638 17.232C7.71331 17.1269 7.11273 16.2018 5.75318 16.5859M20.1798 14.4793C20.0446 14.2963 19.8527 14.1633 19.6339 14.1008C19.5315 14.0726 19.4261 14.0559 19.32 14.0511C19.2022 14.0441 19.0852 14.0441 18.9675 14.0441H16.6401L13.5636 8.56733C13.1599 8.99111 12.8966 9.52896 12.8095 10.1077C12.6969 10.8316 12.8317 11.5723 13.1922 12.2101L16.8882 18.7927C16.9471 18.8978 17.0052 19.0029 17.0697 19.1039C17.1286 19.195 17.1916 19.2812 17.268 19.359C17.4299 19.5215 17.6352 19.6253 17.8602 19.6554C18.0845 19.6848 18.3108 19.6386 18.5063 19.5222C18.703 19.4046 18.8558 19.2259 18.9415 19.0135C19.0291 18.7983 19.0438 18.5635 18.9878 18.3379C18.9602 18.2327 18.9214 18.1307 18.8722 18.0337C18.8196 17.9251 18.76 17.8214 18.7012 17.7163L17.849 16.1983H18.9675C19.0852 16.1983 19.2022 16.1983 19.32 16.192C19.4265 16.1857 19.5302 16.1724 19.6339 16.143C19.853 16.0805 20.0453 15.9472 20.1805 15.7638C20.3176 15.5779 20.3912 15.3529 20.3908 15.1219C20.3912 14.8909 20.3176 14.6659 20.1805 14.48L20.1798 14.4793Z" fill="white"/>
<defs>
<linearGradient id="paint0_linear_1048_2046" x1="12" y1="0" x2="12" y2="24" gradientUnits="userSpaceOnUse">
<stop stop-color="#59CEF4"/>
<stop offset="1" stop-color="#2B71DD"/>
</linearGradient>
</defs>
</svg>
